<mxfile host="app.diagrams.net" agent="Mozilla/5.0 (Windows NT 10.0; Win64; x64) AppleWebKit/537.36 (KHTML, like Gecko) Chrome/127.0.0.0 Safari/537.36" version="24.7.6">
  <diagram name="Pagina-1" id="4ucXO3BAzei0bHxYQ9FR">
    <mxGraphModel dx="1547" dy="1030" grid="1" gridSize="10" guides="1" tooltips="1" connect="1" arrows="1" fold="1" page="1" pageScale="1" pageWidth="827" pageHeight="1169" math="0" shadow="0">
      <root>
        <mxCell id="0" />
        <mxCell id="1" parent="0" />
        <mxCell id="XEZs0Gg49_r02Ji0COyd-14" style="edgeStyle=orthogonalEdgeStyle;rounded=0;orthogonalLoop=1;jettySize=auto;html=1;exitX=0.5;exitY=1;exitDx=0;exitDy=0;entryX=0.5;entryY=0;entryDx=0;entryDy=0;" edge="1" parent="1" source="XEZs0Gg49_r02Ji0COyd-1" target="XEZs0Gg49_r02Ji0COyd-9">
          <mxGeometry relative="1" as="geometry" />
        </mxCell>
        <mxCell id="XEZs0Gg49_r02Ji0COyd-1" value="When User receives money from any source" style="rounded=1;whiteSpace=wrap;html=1;" vertex="1" parent="1">
          <mxGeometry x="-120" y="70" width="140" height="90" as="geometry" />
        </mxCell>
        <mxCell id="XEZs0Gg49_r02Ji0COyd-2" value="" style="rounded=1;whiteSpace=wrap;html=1;" vertex="1" parent="1">
          <mxGeometry x="-110" y="360" width="120" height="60" as="geometry" />
        </mxCell>
        <mxCell id="XEZs0Gg49_r02Ji0COyd-3" value="" style="rounded=1;whiteSpace=wrap;html=1;" vertex="1" parent="1">
          <mxGeometry x="-110" y="450" width="120" height="60" as="geometry" />
        </mxCell>
        <mxCell id="XEZs0Gg49_r02Ji0COyd-17" style="edgeStyle=orthogonalEdgeStyle;rounded=0;orthogonalLoop=1;jettySize=auto;html=1;" edge="1" parent="1" source="XEZs0Gg49_r02Ji0COyd-4">
          <mxGeometry relative="1" as="geometry">
            <mxPoint x="125" y="210" as="targetPoint" />
          </mxGeometry>
        </mxCell>
        <mxCell id="XEZs0Gg49_r02Ji0COyd-4" value="User receives a newsletter" style="rounded=1;whiteSpace=wrap;html=1;" vertex="1" parent="1">
          <mxGeometry x="40" y="70" width="170" height="90" as="geometry" />
        </mxCell>
        <mxCell id="XEZs0Gg49_r02Ji0COyd-11" style="edgeStyle=orthogonalEdgeStyle;rounded=0;orthogonalLoop=1;jettySize=auto;html=1;exitX=0.5;exitY=1;exitDx=0;exitDy=0;" edge="1" parent="1" source="XEZs0Gg49_r02Ji0COyd-5">
          <mxGeometry relative="1" as="geometry">
            <mxPoint x="-209.42857142857133" y="210" as="targetPoint" />
          </mxGeometry>
        </mxCell>
        <mxCell id="XEZs0Gg49_r02Ji0COyd-5" value="All users in a tournament reach certain time stamps (30/15/5 minutes before start)" style="rounded=1;whiteSpace=wrap;html=1;" vertex="1" parent="1">
          <mxGeometry x="-280" y="70" width="140" height="90" as="geometry" />
        </mxCell>
        <mxCell id="XEZs0Gg49_r02Ji0COyd-10" style="edgeStyle=orthogonalEdgeStyle;rounded=0;orthogonalLoop=1;jettySize=auto;html=1;exitX=0.5;exitY=1;exitDx=0;exitDy=0;entryX=0;entryY=0;entryDx=0;entryDy=0;" edge="1" parent="1" source="XEZs0Gg49_r02Ji0COyd-6" target="XEZs0Gg49_r02Ji0COyd-9">
          <mxGeometry relative="1" as="geometry" />
        </mxCell>
        <mxCell id="XEZs0Gg49_r02Ji0COyd-6" value="User receives an invite from a team" style="rounded=1;whiteSpace=wrap;html=1;" vertex="1" parent="1">
          <mxGeometry x="-430" y="70" width="130" height="90" as="geometry" />
        </mxCell>
        <mxCell id="XEZs0Gg49_r02Ji0COyd-15" style="edgeStyle=orthogonalEdgeStyle;rounded=0;orthogonalLoop=1;jettySize=auto;html=1;exitX=0.5;exitY=1;exitDx=0;exitDy=0;entryX=1;entryY=0;entryDx=0;entryDy=0;" edge="1" parent="1" source="XEZs0Gg49_r02Ji0COyd-7" target="XEZs0Gg49_r02Ji0COyd-9">
          <mxGeometry relative="1" as="geometry" />
        </mxCell>
        <mxCell id="XEZs0Gg49_r02Ji0COyd-7" value="&lt;font color=&quot;#fd3f3f&quot;&gt;When user receives messagers (ON HOLD FOR NOW)&lt;/font&gt;" style="rounded=1;whiteSpace=wrap;html=1;" vertex="1" parent="1">
          <mxGeometry x="230" y="70" width="170" height="90" as="geometry" />
        </mxCell>
        <mxCell id="XEZs0Gg49_r02Ji0COyd-9" value="" style="rounded=1;whiteSpace=wrap;html=1;" vertex="1" parent="1">
          <mxGeometry x="-110" y="260" width="120" height="60" as="geometry" />
        </mxCell>
      </root>
    </mxGraphModel>
  </diagram>
</mxfile>
